HIERARCHY
ROOT root
{
	OFFSET	0	13.1	24.9
	CHANNELS 6  Xposition Yposition Zposition Xrotation Yrotation Zrotation
	JOINT spine_1
	{
		OFFSET	0	9.99999	0
		CHANNELS 3  Xrotation Yrotation Zrotation
		JOINT spine_2
		{
			OFFSET	0	112	-10
			CHANNELS 3  Xrotation Yrotation Zrotation
			JOINT spine_3
			{
				OFFSET	0	206.5	19.3
				CHANNELS 3  Xrotation Yrotation Zrotation
				JOINT spine_4
				{
					OFFSET	0	110.4	14.6
					CHANNELS 3  Xrotation Yrotation Zrotation
					JOINT neck_1
					{
						OFFSET	0	71.8	-50.3
						CHANNELS 3  Xrotation Yrotation Zrotation
						JOINT neck_2
						{
							OFFSET	0	86.2	-25.8
							CHANNELS 3  Xrotation Yrotation Zrotation
							JOINT head_ee
							{
								OFFSET	0	179.8	-8.7
								CHANNELS 3  Xrotation Yrotation Zrotation
								End Site
								{
									OFFSET	1	0	0
								}
							}
						}
					}
					JOINT left_clavicle
					{
						OFFSET	-43.2	22.4	-70.8
						CHANNELS 3  Xrotation Yrotation Zrotation
						JOINT left_shoulder
						{
							OFFSET	-93.9	-5.79999	48.7
							CHANNELS 3  Xrotation Yrotation Zrotation
							JOINT left_elbow
							{
								OFFSET	-291.4	-30.8	15.2
								CHANNELS 3  Xrotation Yrotation Zrotation
								JOINT left_lowarm_twist
								{
									OFFSET	-110.7	-3.89999	13.6
									CHANNELS 3  Xrotation Yrotation Zrotation
									JOINT left_hand
									{
										OFFSET	-110.7	-3.89999	13.6
										CHANNELS 3  Xrotation Yrotation Zrotation
										JOINT left_ee
										{
											OFFSET	-80.8	-5.10001	12.1
											CHANNELS 3  Xrotation Yrotation Zrotation
											End Site
											{
												OFFSET	1	0	0
											}
										}
									}
								}
							}
						}
					}
					JOINT right_clavicle
					{
						OFFSET	43.2	22.4	-70.8
						CHANNELS 3  Xrotation Yrotation Zrotation
						JOINT right_shoulder
						{
							OFFSET	93.9	-5.79999	48.7
							CHANNELS 3  Xrotation Yrotation Zrotation
							JOINT right_elbow
							{
								OFFSET	291.4	-30.8	15.2
								CHANNELS 3  Xrotation Yrotation Zrotation
								JOINT right_lowarm_twist
								{
									OFFSET	110.7	-3.89999	13.6
									CHANNELS 3  Xrotation Yrotation Zrotation
									JOINT right_hand
									{
										OFFSET	110.7	-3.89999	13.6
										CHANNELS 3  Xrotation Yrotation Zrotation
										JOINT right_ee
										{
											OFFSET	80.8	-5.10001	12.1
											CHANNELS 3  Xrotation Yrotation Zrotation
											End Site
											{
												OFFSET	1	0	0
											}
										}
									}
								}
							}
						}
					}
				}
			}
		}
	}
	JOINT left_hip
	{
		OFFSET	-82.8	-127.5	0.300001
		CHANNELS 3  Xrotation Yrotation Zrotation
		JOINT left_knee
		{
			OFFSET	-28.2	-396.7	2.2
			CHANNELS 3  Xrotation Yrotation Zrotation
			JOINT left_ankle
			{
				OFFSET	-11.7	-411.3	35.4
				CHANNELS 3  Xrotation Yrotation Zrotation
				JOINT left_toes
				{
					OFFSET	0	-60	-88.6
					CHANNELS 3  Xrotation Yrotation Zrotation
					JOINT left_foot_ee
					{
						OFFSET	-22.5	-16.5	-42.2
						CHANNELS 3  Xrotation Yrotation Zrotation
						End Site
						{
							OFFSET	1	0	0
						}
					}
				}
			}
		}
	}
	JOINT right_hip
	{
		OFFSET	82.8	-127.5	0.300001
		CHANNELS 3  Xrotation Yrotation Zrotation
		JOINT right_knee
		{
			OFFSET	28.2	-396.7	2.2
			CHANNELS 3  Xrotation Yrotation Zrotation
			JOINT right_ankle
			{
				OFFSET	11.7	-411.3	35.4
				CHANNELS 3  Xrotation Yrotation Zrotation
				JOINT right_toes
				{
					OFFSET	0	-60	-88.6
					CHANNELS 3  Xrotation Yrotation Zrotation
					JOINT right_foot_ee
					{
						OFFSET	22.5	-16.5	-42.2
						CHANNELS 3  Xrotation Yrotation Zrotation
						End Site
						{
							OFFSET	1	0	0
						}
					}
				}
			}
		}
	}
}
MOTION
Frames: 7
Frame Time: 0.02
2800.94 716.97 -1473.77 15.3061655794 57.9393615542 -9.63787022033 -2.85203 -0.12138 -1.46922 -2.85083 -0.0276541 -1.47396 -2.84871 0.354384 -1.431 -2.85154 0.123962 -1.469 -19.2789 -1.59695 -2.54299 -19.2643 -1.75274 -3.01064 -0.0 0.0 -0.0 5.58658 11.7611 10.8501 6.87271 -15.6315 56.867 3.90226 -62.6295 2.37457 -83.8716 -8.31058 5.21091 -3.97589 28.5514 -10.3878 -0.0 0.0 -0.0 8.60009 15.3517 -16.5891 -17.0868 5.31639 -60.5237 0.240247 6.7871 -0.0142462 79.0891 3.73392 8.55759 -1.323 -28.7731 -4.0741 0.0 0.0 0.0 -22.1556 39.2568 -1.23634 -7.75995 0.240861 1.16566 37.3898 -29.9549 -5.65161 -15.9987 0.0 0.0 -0.0 0.0 -0.0 32.0815 21.4551 -16.0649 -18.9397 -0.306748 -2.87706 -11.3527 9.29629 -1.78276 7.19412 -0.0 -0.0 0.0 0.0 0.0 
2789.39856874 720.619 -1482.54423532 15.3917345609 58.3754798976 -9.64490735951 -2.70906 0.00107309 -1.39572 -2.70798 0.0898758 -1.39283 -2.70908 0.443738 -1.32332 -2.71145 0.229196 -1.37678 -20.8722 -2.22638 -3.13888 -20.855 -2.74819 -3.87285 -0.0 0.0 -0.0 5.40729 11.4025 10.5457 5.15057 -15.4091 57.8551 3.82096 -62.1347 2.30253 -85.1171 -8.46655 5.18169 -3.90803 28.7191 -9.90873 -0.0 0.0 -0.0 8.70641 14.4701 -16.866 -14.2921 6.26299 -60.8907 0.253798 7.16604 -0.0158921 79.7136 3.80556 8.59354 -1.53272 -28.966 -3.03222 0.0 0.0 0.0 -21.1716 38.6395 -2.91832 -10.356 0.28593 1.56144 36.4668 -30.1705 -5.56919 -16.4171 0.0 0.0 -0.0 0.0 -0.0 31.1639 21.2803 -16.3172 -19.3766 -0.302536 -2.94395 -9.86559 9.12246 -1.5446 6.47465 -0.0 -0.0 0.0 0.0 0.0 
2771.24481862 727.531 -1490.09989648 16.4713707251 58.4766050259 -10.7130495259 -2.69801 -0.101469 -1.29405 -2.69708 -0.0189266 -1.29788 -2.6956 0.313911 -1.2595 -2.69779 0.111074 -1.29326 -18.7902 -2.84732 -4.06345 -18.7566 -3.3331 -4.90863 -0.0 0.0 -0.0 5.08167 12.2816 9.98048 3.27531 -14.9632 58.8894 3.54194 -60.3044 2.05794 -85.1912 -8.47582 5.17984 -3.81844 28.6019 -9.49084 -0.0 0.0 -0.0 8.57947 14.4219 -16.5909 -12.3111 6.73869 -61.4629 0.211056 5.9688 -0.0110034 78.4866 3.6652 8.52217 -2.39981 -28.5858 1.80665 0.0 0.0 0.0 -20.4609 38.2835 -4.43014 -13.7554 0.317755 2.08198 34.2323 -29.9749 -5.31014 -17.1901 0.0 0.0 -0.0 0.0 -0.0 29.899 21.232 -15.6644 -20.6041 -0.287969 -3.13173 -11.1063 6.71274 -1.72006 6.57939 -0.0 -0.0 0.0 0.0 0.0 
2750.07008343 728.229 -1499.16442413 16.8120768222 59.862919768 -11.3364374108 -2.53169 -0.217569 -1.2671 -2.53081 -0.136506 -1.27837 -2.52666 0.191476 -1.2713 -2.52891 -0.0116877 -1.28558 -17.559 -3.68596 -4.61976 -17.5207 -4.54351 -5.69393 -0.0 0.0 -0.0 4.88094 12.3461 9.63923 1.39873 -14.6628 60.0276 3.21764 -57.8837 1.77962 -85.1119 -8.46591 5.18182 -3.68655 27.8943 -9.20118 -0.0 0.0 -0.0 8.60852 13.7016 -16.6876 -10.6745 7.02338 -62.3078 0.199953 5.6569 -0.00987893 79.221 3.74902 8.56525 -2.39505 -28.6066 1.7704 0.0 0.0 0.0 -20.5937 38.1626 -4.32497 -16.6792 0.320394 2.53052 31.6833 -28.7359 -4.93671 -16.8276 0.0 0.0 -0.0 0.0 -0.0 29.608 21.1339 -15.4161 -23.0538 -0.246888 -3.50536 -10.1989 4.43724 -1.56174 7.03014 -0.0 -0.0 0.0 0.0 0.0 
2730.07423782 732.698 -1506.44371298 17.8368701292 61.3517998756 -12.1392321245 -2.49714 -0.157238 -1.26551 -2.49625 -0.076398 -1.27295 -2.49352 0.247546 -1.25099 -2.4957 0.0468859 -1.27438 -17.0703 -4.13683 -5.20592 -17.0194 -5.03763 -6.38224 -0.0 0.0 -0.0 4.5425 12.6553 9.06776 -0.137771 -14.4781 61.7426 3.09172 -56.8461 1.67358 -85.0303 -8.45572 5.18384 -3.46069 26.2092 -8.95347 -0.0 0.0 -0.0 8.66854 13.6446 -16.8209 -8.77225 7.42598 -62.5287 0.241084 6.81052 -0.0143452 79.3801 3.76726 8.57444 -2.51741 -28.8184 2.31935 0.0 0.0 0.0 -18.6105 36.719 -6.75701 -19.7718 0.298285 3.00444 30.3375 -26.1778 -4.63582 -17.4715 0.0 0.0 -0.0 0.0 -0.0 28.3875 21.1168 -15.3221 -24.2833 -0.220257 -3.69215 -7.67181 3.61512 -1.16649 7.77842 -0.0 -0.0 0.0 0.0 0.0 
2713.72784351 736.625 -1513.35340235 16.8470738287 61.5228962957 -10.2688247606 -2.48863 -0.208982 -1.56005 -2.48729 -0.109302 -1.57018 -2.48271 0.290494 -1.54695 -2.48605 0.042569 -1.5734 -12.7335 -4.63193 -4.19474 -12.7072 -6.15373 -5.36482 -0.0 0.0 -0.0 4.48601 15.924 8.98266 -1.40511 -14.2487 62.9449 2.92456 -55.3735 1.53481 -85.052 -8.45843 5.1833 -2.9505 24.1338 -7.23674 -0.0 0.0 -0.0 8.41025 14.1673 -16.2341 -7.49718 7.59001 -62.5757 0.321276 9.04301 -0.0254064 79.4084 3.77051 8.57607 -2.82534 -28.6239 4.08065 0.0 0.0 0.0 -16.708 33.9246 -8.48638 -22.4734 0.258065 3.417 26.1695 -20.813 -3.89863 -18.8065 0.0 0.0 -0.0 0.0 -0.0 28.8093 23.2569 -17.4359 -26.1523 -0.172109 -3.97492 -2.01874 1.37864 -0.301242 7.01277 -0.0 -0.0 0.0 0.0 0.0 
2695.3367125 741.038 -1521.13495658 17.1355777135 62.8608548335 -10.9538472117 -2.59067 -0.0625904 -1.28396 -2.58975 0.0192314 -1.28534 -2.58922 0.345296 -1.23825 -2.59133 0.145421 -1.27724 -11.442 -3.86899 -4.15505 -11.4043 -4.60837 -5.05583 -0.0 0.0 -0.0 4.57368 18.653 9.10288 -4.15276 -16.0408 62.1132 2.82708 -54.4608 1.45504 -85.1325 -8.46848 5.18131 -2.6741 21.6004 -7.00068 -0.0 0.0 -0.0 8.22298 12.2526 -15.9119 -6.11548 8.11216 -63.2864 0.364791 10.2434 -0.0326961 77.4924 3.55259 8.46214 -2.94584 -28.6539 4.71492 0.0 0.0 0.0 -15.2195 33.509 -9.46388 -25.0655 0.201228 3.81069 22.4744 -17.6682 -3.33308 -21.5194 0.0 0.0 -0.0 0.0 -0.0 27.0769 25.481 -17.9305 -24.0563 -0.225475 -3.65771 0.0314839 -3.1986 0.00462616 4.95116 -0.0 -0.0 0.0 0.0 0.0 
